<svg width="492" height="313" viewBox="0 0 492 313" fill="none" xmlns="http://www.w3.org/2000/svg">
<g clip-path="url(#clip0_5_363)">
<path d="M387.598 73.7096L368.991 99.0652C368.991 99.0652 353.126 105.724 334.585 119.095L339.023 126.011C339.023 126.011 369.627 113.502 377.459 108.216L391.76 85.8358L387.598 73.7096Z" fill="#A0616A"/>
<path d="M323.458 131.376C321.682 128.782 323.791 124.259 328.167 121.274C332.544 118.288 337.531 117.971 339.307 120.565C341.083 123.159 338.975 127.682 334.598 130.667C330.221 133.653 325.234 133.97 323.458 131.376Z" fill="#A0616A"/>
<path d="M396.693 52.064L390.604 50.3398C390.604 50.3398 387.059 50.3466 385.059 53.822C383.06 57.2974 368.901 88.285 369.572 89.4855C370.243 90.6859 371.18 90.9511 369.977 91.6211C368.775 92.291 367.674 91.9514 368.493 92.9552C369.313 93.959 368.18 96.1643 368.18 96.1643L383.801 107.668L396.693 52.064Z" fill="#E6E6E6"/>
<path d="M420.319 306.87L412.89 306.869L409.356 278.265L420.32 278.265L420.319 306.87Z" fill="#A0616A"/>
<path d="M394.866 306.701C394.634 307.09 394.512 308.345 394.512 308.798C394.512 310.188 395.641 311.315 397.034 311.315H420.041C420.991 311.315 421.761 310.546 421.761 309.598V308.641C421.761 308.641 422.899 305.768 420.556 302.226C420.556 302.226 417.643 304.999 413.292 300.655L412.008 298.335L402.719 305.116L397.57 305.749C396.444 305.887 395.445 305.727 394.866 306.701Z" fill="#2F2E41"/>
<path d="M393.43 299.643L386.104 300.871L377.871 273.246L388.684 271.433L393.43 299.643Z" fill="#A0616A"/>
<path d="M368.301 303.686C368.138 304.108 368.226 305.366 368.301 305.812C368.531 307.183 369.832 308.107 371.205 307.877L393.894 304.072C394.831 303.915 395.463 303.029 395.305 302.094L395.147 301.151C395.147 301.151 395.792 298.129 392.893 295.024C392.893 295.024 390.482 298.24 385.469 294.676L383.818 292.6L375.783 300.824L370.81 302.299C369.722 302.622 368.711 302.63 368.301 303.686Z" fill="#2F2E41"/>
<path d="M378.201 152.869C378.201 152.869 368.22 164.534 368.22 175.227C368.22 185.919 367.977 219.509 367.977 219.509C367.977 219.509 373.819 271.946 375.28 276.321C376.741 280.695 377.471 287.985 377.471 287.985L391.591 284.583C391.591 284.583 393.539 235.251 387.696 223.586L401.816 183.732L406.685 296.491H423.076C423.076 296.491 431.516 237.195 427.134 221.642C427.134 221.642 436.872 162.347 434.438 158.945C432.003 155.542 378.201 152.869 378.201 152.869Z" fill="#2F2E41"/>
<path d="M414.475 36.7083L401.329 37.6803L396.947 44.9708C396.947 44.9708 386.722 49.345 385.261 55.6634C383.801 61.9818 383.314 135.858 383.314 135.858L376.01 146.551L376.497 155.785L434.925 158.702V149.823L440.281 139.26C440.281 139.26 434.438 54.6913 432.977 54.2053C431.516 53.7193 420.318 45.9428 420.318 45.9428L414.475 36.7083Z" fill="#E6E6E6"/>
<path d="M408.525 34.8997C399.383 34.8997 391.971 27.5012 391.971 18.3747C391.971 9.24825 399.383 1.84976 408.525 1.84976C417.668 1.84976 425.08 9.24825 425.08 18.3747C425.08 27.5012 417.668 34.8997 408.525 34.8997Z" fill="#A0616A"/>
<path d="M395.302 5.08319C396.145 2.69839 398.481 1.25159 401.014 1.30795C401.121 1.31031 401.229 1.30932 401.335 1.30496C402.61 1.25291 403.834 0.818063 405.085 0.562965C407.416 0.0874829 409.874 0.246674 412.123 1.01882C412.823 1.25884 413.523 1.56066 414.262 1.56074C415.002 1.56084 415.807 1.15608 415.988 0.440257C416.03 1.08835 416.073 1.73642 416.116 2.38448C416.356 1.85995 416.597 1.33539 416.838 0.810831L417.32 2.90271L418.864 1.15443C418.725 1.92501 419.175 2.70167 419.785 3.19433C420.394 3.68702 421.147 3.95955 421.868 4.2665C424.982 5.59135 427.905 7.93698 428.803 11.1949C429.369 13.2532 429.073 15.4377 428.773 17.5511C428.507 19.4195 428.218 21.3525 427.201 22.943C426.549 23.9626 425.609 24.8205 425.212 25.9635C424.842 27.0288 424.982 28.2485 424.455 29.2461C423.926 30.2482 422.834 30.8151 421.766 31.1958C420.697 31.5766 419.561 31.8459 418.641 32.5085C417.721 33.1712 416.653 35.0799 414.648 34.9772L414.001 33.7637C413.335 33.2223 415.799 33.6515 415.825 32.7948C415.85 31.9381 412.861 31.4088 413.284 30.6633C413.934 29.5202 414.813 28.5253 415.545 27.4328C416.402 26.1552 417.075 24.6625 416.78 23.1031C416.665 22.4966 416.381 21.9236 415.947 21.483C414.698 20.2127 413.306 20.771 411.953 20.9527C411.02 21.0781 409.906 20.9334 409.422 20.1278C408.855 19.1854 409.487 17.9865 409.409 16.8901C409.328 15.7284 408.446 14.7757 407.486 14.1134C406.527 13.4511 405.437 12.9686 404.574 12.1852C403.711 11.4018 403.096 10.1779 403.472 9.0756C399.38 7.37502 398.754 7.21418 394.445 8.25125C394.65 7.17561 394.937 6.1158 395.302 5.08319Z" fill="#2F2E41"/>
<path d="M465.19 216.436V166.277C465.19 164.901 464.602 163.585 463.578 162.664C462.554 161.744 461.181 161.299 459.81 161.443C447.111 159.738 435.15 160.549 424.311 165.18C423.083 165.18 422.084 166.177 422.084 167.402V217.736C422.084 218.962 423.083 219.959 424.311 219.959C436.243 217.166 448.827 217.893 461.66 219.959C463.606 219.959 465.19 218.379 465.19 216.436Z" fill="#E6E6E6"/>
<path d="M465.19 220.901V170.212C465.19 167.532 463.005 165.351 460.32 165.351C448.177 162.18 436.174 162.174 424.311 165.351C423.083 165.351 422.084 166.348 422.084 167.574V217.393C422.084 218.617 423.08 219.613 424.305 219.616C436.002 217.584 448.532 219.563 461.66 224.424C463.606 224.424 465.19 222.844 465.19 220.901Z" fill="#F2F2F2"/>
<path d="M437.149 186.299H448.504C452.582 186.299 455.9 182.987 455.9 178.916C455.9 174.846 452.582 171.533 448.504 171.533H437.149C433.071 171.533 429.753 174.846 429.753 178.916C429.753 182.987 433.071 186.299 437.149 186.299Z" fill="#E6E6E6"/>
<path d="M426.742 86.7393L427.176 112.909C427.176 112.909 428.563 133.304 432.008 156.256L440.22 156.779C440.22 156.779 439.209 120.942 439.577 111.513L438.997 90.5683L426.742 86.7393Z" fill="#A0616A"/>
<path d="M435.338 172.478C432.193 172.371 429.788 167.998 429.969 162.709C430.149 157.421 432.845 153.22 435.99 153.327C439.136 153.434 441.54 157.807 441.36 163.096C441.18 168.384 438.484 172.585 435.338 172.478Z" fill="#A0616A"/>
<path d="M426.869 53.422L433.195 53.652C433.195 53.652 436.565 54.7472 437.397 58.6683C438.228 62.5893 444.056 103.168 443.047 104.104C442.039 105.04 441.066 105.005 442.003 106.012C442.941 107.019 444.093 107.034 443.004 107.737C441.915 108.44 442.313 110.887 442.313 110.887L424.818 109.649L426.869 53.422Z" fill="#E6E6E6"/>
<path d="M9.53067 287.231H177.831C178.807 287.231 179.774 287.082 180.705 286.788L180.804 286.749C233.502 260.605 278.685 246.336 318.932 243.126L319.086 243.096C323.067 241.839 325.742 238.193 325.742 234.025V9.52214C325.742 6.45661 324.321 3.6592 321.844 1.84757C319.366 0.0359409 316.266 -0.472405 313.337 0.451215L180.289 42.4597C179.492 42.7114 178.665 42.8387 177.831 42.8387H9.53067C4.27527 42.8387 -3.05176e-05 47.1068 -3.05176e-05 52.3525V277.717C-3.05176e-05 282.964 4.27527 287.231 9.53067 287.231ZM180.239 285.492C179.458 285.733 178.648 285.855 177.831 285.855H9.53067C5.03558 285.855 1.3786 282.205 1.3786 277.717V52.3525C1.3786 47.8654 5.03561 44.2149 9.53067 44.2149H177.831C178.806 44.2149 179.773 44.0661 180.705 43.7721L313.753 1.76357C316.258 0.971994 318.91 1.4081 321.029 2.95766C323.148 4.50756 324.363 6.90011 324.363 9.52214V234.025C324.363 237.565 322.108 240.664 318.743 241.761C278.349 244.997 233.042 259.302 180.239 285.492Z" fill="white"/>
<path d="M173.336 277.036C127.448 260.827 76.2549 262.688 21.87 275.42C15.0426 277.019 8.49683 271.887 8.49683 264.887V59.7555C8.49683 54.7741 11.899 50.4186 16.7464 49.2354C74.1179 35.2308 127.706 32.6542 174.932 49.2956C178.392 50.5147 182.232 49.8542 185.151 47.6359C224.947 17.3966 265.675 2.23494 307.619 6.73682C313.106 7.32576 317.245 11.9937 317.245 17.5026V224.871C317.245 230.423 313.037 235.066 307.504 235.64C262.358 240.327 220.873 254.533 182.292 276.286C179.56 277.826 176.294 278.081 173.336 277.036Z" fill="#F2F2F2"/>
<path d="M174.81 265.533C177.935 265.533 181.013 264.676 183.726 262.995C216.127 242.907 251.428 231.173 288.646 228.117C297.372 227.4 304.207 219.97 304.207 211.202V34.0759C304.207 24.9848 297.144 17.5357 288.128 17.1174C261.03 15.8561 228.127 27.919 184.588 55.0662C180.905 57.362 176.426 58.0437 172.299 56.939C130.92 45.8515 86.0663 45.5276 35.171 55.9489C27.2697 57.567 21.5346 64.5676 21.5346 72.5952V245.487C21.5346 250.704 23.8853 255.55 27.9843 258.782C32.1135 262.038 37.4265 263.205 42.5617 261.985C90.7081 250.546 132.051 251.372 168.956 264.513C170.872 265.196 172.851 265.533 174.81 265.533ZM284.259 18.4049C285.542 18.4049 286.807 18.4338 288.064 18.4923C296.343 18.8763 302.829 25.7213 302.829 34.0759V211.202C302.829 219.259 296.549 226.087 288.533 226.744C251.095 229.819 215.588 241.622 182.998 261.825C178.944 264.34 173.994 264.847 169.419 263.218C132.257 249.984 90.6566 249.143 42.2426 260.646C37.5201 261.768 32.6352 260.696 28.8389 257.702C25.0732 254.733 22.9133 250.281 22.9133 245.487V72.5952C22.9133 65.218 28.1849 58.7842 35.4484 57.2968C86.1282 46.9189 130.775 47.2368 171.942 58.2682C176.438 59.4717 181.312 58.7308 185.318 56.2335C226.579 30.5067 258.177 18.4049 284.259 18.4049Z" fill="white"/>
<path d="M177.94 57.9668L179.319 57.9796L177.401 265.218L176.022 265.206L177.94 57.9668Z" fill="white"/>
<path d="M290.767 44.2906L291.2 45.5968L194.672 77.4794L194.239 76.1732L290.767 44.2906Z" fill="#3F3D56"/>
<path d="M290.767 69.7968L291.2 71.1031L194.672 102.986L194.239 101.679L290.767 69.7968Z" fill="#3F3D56"/>
<path d="M290.767 95.3028L291.2 96.6091L194.672 128.492L194.239 127.185L290.767 95.3028Z" fill="#3F3D56"/>
<path d="M290.767 120.809L291.2 122.115L194.672 153.998L194.239 152.691L290.767 120.809Z" fill="#3F3D56"/>
<path d="M39.0169 77.5554H154.709V78.9316H39.0169V77.5554Z" fill="#3F3D56"/>
<path d="M39.0169 101.645H154.709V103.021H39.0169V101.645Z" fill="#3F3D56"/>
<path d="M39.0169 125.733H154.709V127.109H39.0169V125.733Z" fill="#3F3D56"/>
<path d="M39.0169 149.823H154.709V151.199H39.0169V149.823Z" fill="#3F3D56"/>
<path d="M39.0169 173.912H154.709V175.288H39.0169V173.912Z" fill="#3F3D56"/>
<path d="M39.0169 198.001H154.709V199.377H39.0169V198.001Z" fill="#3F3D56"/>
<path d="M454.598 301.073C456.022 301.162 456.809 299.396 455.732 298.367L455.625 297.941C455.639 297.907 455.653 297.873 455.667 297.839C457.107 294.411 461.988 294.435 463.416 297.868C464.683 300.915 466.297 303.967 466.694 307.189C466.872 308.611 466.792 310.06 466.476 311.455C469.446 304.98 471.009 297.909 471.009 290.798C471.009 289.012 470.911 287.225 470.71 285.443C470.546 283.985 470.319 282.536 470.025 281.101C468.435 273.341 464.994 265.95 460.029 259.777C457.643 258.475 455.653 256.439 454.451 253.999C454.019 253.119 453.68 252.173 453.52 251.208C453.792 251.244 454.544 247.115 454.339 246.862C454.718 246.288 455.395 246.003 455.809 245.444C457.864 242.662 460.697 243.147 462.175 246.928C465.334 248.52 465.365 251.159 463.426 253.697C462.193 255.312 462.024 257.497 460.942 259.226C461.053 259.368 461.169 259.506 461.28 259.648C463.322 262.261 465.087 265.07 466.575 268.021C466.155 264.741 466.776 260.79 467.834 258.244C469.039 255.342 471.298 252.898 473.287 250.389C475.676 247.376 480.576 248.691 480.996 252.51C481.001 252.547 481.005 252.584 481.008 252.621C480.713 252.788 480.424 252.965 480.141 253.151C478.528 254.216 479.085 256.711 480.996 257.006L481.04 257.012C480.933 258.075 480.75 259.128 480.483 260.163C483.035 270.014 477.526 273.602 469.66 273.763C469.486 273.852 469.317 273.941 469.143 274.025C469.94 276.265 470.577 278.563 471.049 280.892C471.472 282.949 471.766 285.029 471.93 287.118C472.135 289.754 472.117 292.403 471.895 295.034L471.908 294.94C472.473 292.043 474.05 289.336 476.338 287.46C479.747 284.665 484.564 283.636 488.241 281.389C490.012 280.307 492.281 281.705 491.972 283.754L491.956 283.852C491.409 284.074 490.875 284.332 490.358 284.621C490.063 284.787 489.773 284.964 489.491 285.15C487.878 286.215 488.435 288.71 490.346 289.005L490.389 289.012C490.42 289.016 490.447 289.02 490.478 289.025C489.539 291.251 488.23 293.318 486.592 295.1C484.996 303.7 478.143 304.515 470.813 302.011H470.808C470.007 305.496 468.836 308.9 467.331 312.144H454.909C454.865 312.007 454.825 311.864 454.785 311.727C455.933 311.798 457.091 311.731 458.222 311.522C457.3 310.393 456.379 309.255 455.457 308.127C455.435 308.104 455.417 308.082 455.399 308.06C454.932 307.482 454.46 306.909 453.992 306.331L453.992 306.33C453.963 304.557 454.176 302.789 454.598 301.073Z" fill="#F2F2F2"/>
<path d="M315.664 312.181C315.664 312.635 316.029 313 316.484 313H491.083C491.538 313 491.903 312.635 491.903 312.181C491.903 311.727 491.538 311.362 491.083 311.362H316.484C316.029 311.362 315.664 311.727 315.664 312.181Z" fill="#CCCCCC"/>
<path d="M34.1576 268.653C42.9138 268.653 50.0121 261.567 50.0121 252.826C50.0121 244.086 42.9138 237 34.1576 237C25.4014 237 18.3032 244.086 18.3032 252.826C18.3032 261.567 25.4014 268.653 34.1576 268.653Z" fill="#8254BC"/>
<path d="M41.5822 252.23L31.745 246.56C31.2855 246.295 30.711 246.626 30.711 247.156V252.138H27.7601C27.3794 252.138 27.0708 252.446 27.0708 252.826C27.0708 253.206 27.3794 253.514 27.7601 253.514H30.711V258.497C30.711 259.026 31.2855 259.357 31.745 259.092L41.5822 253.422C42.0417 253.157 42.0417 252.495 41.5822 252.23Z" fill="white"/>
<path d="M259.926 208.215C259.309 201.162 256.375 194.425 251.681 189.123C247.107 183.958 240.856 180.415 234.116 178.971C230.353 178.165 226.454 178.008 222.644 178.551C221.731 178.681 221.756 180.127 222.678 179.995C229.163 179.072 235.867 180.2 241.695 183.19C247.668 186.254 252.449 191.238 255.403 197.248C257.092 200.685 258.145 204.436 258.479 208.249C258.56 209.172 260.008 209.144 259.926 208.215Z" fill="white"/>
<path d="M224.248 172.752L213.107 178.239C212.702 178.438 212.636 179.097 212.98 179.381L223.527 188.084C224.241 188.673 225.245 187.632 224.526 187.039L213.979 178.336L213.852 179.479L224.993 173.992C225.829 173.58 225.078 172.343 224.248 172.752Z" fill="white"/>
</g>
<defs>
<clipPath id="clip0_5_363">
<rect width="492" height="313" fill="white" transform="matrix(-1 0 0 1 492 0)"/>
</clipPath>
</defs>
</svg>
